<?xml version="1.0" encoding="utf-8"?>
<!-- Generator: Adobe Illustrator 27.5.0, SVG Export Plug-In . SVG Version: 6.00 Build 0)  -->
<svg version="1.1" id="Layer_1" xmlns="http://www.w3.org/2000/svg" xmlns:xlink="http://www.w3.org/1999/xlink" x="0px" y="0px"
	 viewBox="0 0 367.5 335.4" style="enable-background:new 0 0 367.5 335.4;" xml:space="preserve">
<style type="text/css">
	.st0{fill:#808080;}
</style>
<g>
	<path class="st0" d="M159.9,335.4c-37.1,0-74.1,0.1-111.2,0c-24-0.1-43.1-15.7-47.7-38.9c-0.7-3.5-0.9-7.2-0.9-10.8
		C0,233.6,0,181.6,0,129.5c0-29,20.8-49.6,49.9-49.6c7.7,0,15.5-0.1,23.2,0c5.6,0.1,10.2-1.8,14-5.8c3.9-4.1,7.9-8,11.9-11.9
		c9.5-9.4,21-14.2,34.3-14.2c19.1-0.1,38.2-0.1,57.3,0c9.9,0,17.1,6.9,17.1,16c0,9.2-7.2,15.9-17.2,15.9c-18.6,0-37.2,0.1-55.8,0
		c-5.6,0-10.2,1.7-14.1,5.7c-3.9,4.1-7.9,8-11.9,11.9c-9.6,9.5-21.2,14.2-34.7,14.4c-8.2,0.1-16.5,0-24.7,0
		c-11.1,0-17.5,6.4-17.5,17.4c0,52.2,0,104.3,0,156.5c0,11.3,6.5,17.8,18,17.8c62.9,0,125.8,0,188.7,0c10.4,0,20.7,0,31.1,0
		c11.4,0,17.8-6.4,17.8-17.9c0-35.8,0-71.6,0.1-107.4c0-2.6,0.2-5.3,1-7.7c2.4-7.4,9.8-11.7,17.7-10.5c7.2,1.1,13,7.5,13.2,15.1
		c0.2,7.9,0.1,15.7,0.1,23.6c0,29.1,0,58.1,0,87.2c0,28.6-20.6,49.4-49.2,49.4C233.5,335.4,196.7,335.4,159.9,335.4z"/>
	<path class="st0" d="M159.7,287.4c-44.2-0.1-79.9-35.9-79.8-80.1c0.1-44,36-79.6,79.9-79.6c44.2,0.1,79.9,35.9,79.7,80.1
		C239.4,252.1,203.8,287.5,159.7,287.4z M112,207.6c0,26.4,21.3,47.9,47.7,48c26.2,0.1,47.9-21.4,48.1-47.7
		c0.2-26.5-21.4-48.1-48-48.1C133.2,159.8,112,181.1,112,207.6z"/>
	<path class="st0" d="M319.5,79.9c0,11,0.1,21.6,0,32.1c-0.2,11.1-10.9,18.5-21.2,14.9c-6.6-2.3-10.6-8.2-10.7-16
		c-0.1-8.9,0-17.7,0-26.6c0-1.3,0-2.7,0-4.5c-5.6,0-10.9,0-16.3,0c-5,0-10,0-15,0c-9.5-0.1-16.7-7-16.7-16c0-8.8,7.1-15.8,16.4-15.9
		c9-0.2,18,0,26.9,0c1.3,0,2.7,0,4.5,0c0-1.7,0-3,0-4.3c0-8.9-0.1-17.7,0-26.6c0.1-9.8,7-17.1,16.1-17c9.2,0.1,15.8,7.3,15.9,17.2
		c0,10.1,0,20.1,0,30.7c2.7,0,5.2,0,7.6,0c8,0,16-0.1,23.9,0c9.6,0.2,16.5,7.3,16.3,16.3c-0.2,8.9-7.2,15.5-16.7,15.6
		C340.6,79.9,330.3,79.9,319.5,79.9z"/>
</g>
</svg>
