<?xml version="1.0" encoding="utf-8"?>
<!-- Generator: Adobe Illustrator 27.5.0, SVG Export Plug-In . SVG Version: 6.00 Build 0)  -->
<svg version="1.1" id="Layer_1" xmlns="http://www.w3.org/2000/svg" xmlns:xlink="http://www.w3.org/1999/xlink" x="0px" y="0px"
	 viewBox="0 0 182.1 238.6" style="enable-background:new 0 0 182.1 238.6;" xml:space="preserve" fill="#FFFFFF">
<g>
	<path class="st0" d="M60.3,238.6c-2.7-1.8-5.6-3.4-8.1-5.6c-5.7-4.8-11.2-9.9-16.7-14.8c-0.5-0.4-0.9-0.8-1.5-1.2
		c-4.9,4.4-9.8,8.7-14.7,13c-3,2.7-6.4,4-10.5,3.1c-4.9-1.1-8.3-5-8.6-10c-0.1-0.9-0.1-1.7-0.1-2.6c0-67.5,0-135,0-202.4
		c0-3.4,0.5-6.6,2.9-9.3C7.1,4.3,13.6,4,18.6,8.2c4.6,3.9,9,7.9,13.5,11.8c0.6,0.5,1.2,1,1.9,1.6c3.3-2.9,6.5-5.8,9.8-8.7
		c3.5-3.1,6.9-6.2,10.4-9.3c5.5-4.9,11.1-4.9,16.6,0C76.9,9.1,83,14.5,89,19.9c0.6,0.6,1.3,1.1,2.1,1.7c5.7-5.1,11.3-10.1,16.9-15.1
		c1.1-1,2.2-2,3.3-2.9c5.5-4.8,11.1-4.8,16.6,0.1c6.1,5.4,12.2,10.9,18.2,16.3c0.6,0.5,1.2,1,1.9,1.7c1.8-1.5,3.5-3,5.2-4.6
		c3.1-2.8,6.3-5.5,9.4-8.3c3.8-3.5,8.1-4.7,12.8-2.5c4.6,2.1,6.5,6.1,6.5,11.1c0,41.8,0,83.6,0,125.3c0,26,0,52,0,78
		c0,4.4-1.2,8.1-4.9,10.7c-4.1,2.8-9.2,2.6-13.2-0.7c-4.8-4-9.5-8.3-14.2-12.4c-0.5-0.5-1.1-0.9-1.7-1.4c-4.5,4-9,8-13.4,12
		c-1.9,1.7-3.7,3.6-5.8,5.1c-2.3,1.7-4.7,3.1-7.1,4.6c-1.4,0-2.8,0-4.2,0c-2.6-1.7-5.4-3.2-7.9-5.1c-2.3-1.8-4.4-3.9-6.6-5.9
		c-4-3.5-8-7.1-12-10.7c-5.8,5.1-11.3,10.2-17,15.1c-2.8,2.4-6.1,4.4-9.1,6.6C63.4,238.6,61.8,238.6,60.3,238.6z M119.6,227.4
		c6.6-5.9,13.1-11.7,19.6-17.5c6.3-5.6,11.5-5.6,17.9,0c4,3.5,8,7.1,12,10.6c0.5,0.4,1,0.8,1.7,1.3c0-68.5,0-136.7,0-205.3
		c-0.9,0.8-1.5,1.2-2.1,1.7c-4.2,3.7-8.3,7.5-12.6,11.1c-5.4,4.7-10.9,4.6-16.3-0.1c-5.1-4.5-10.2-9.1-15.3-13.7
		c-1.7-1.5-3.3-2.9-5.1-4.5c-6.9,6.1-13.6,12.1-20.3,18.1c-5.3,4.8-11.1,4.7-16.5,0C76.7,23.9,70.6,18.4,64.5,13
		c-0.7-0.6-1.4-1.2-2.1-1.8c-6.8,6.1-13.3,12-20,17.8c-1.8,1.6-4.1,2.9-6.4,3.5c-3.8,1-7.1-0.4-10-3c-4.8-4.3-9.6-8.5-14.7-13
		c0,68.6,0,136.8,0,205.4c5.1-4.5,9.7-8.8,14.5-12.8c1.8-1.5,4-2.7,6.3-3.3c3.9-1,7.2,0.6,10.2,3.3c6.7,6,13.4,12,20.2,18.1
		c0.8-0.7,1.5-1.3,2.2-1.9c6-5.4,12-10.8,18.1-16.1c5.5-4.9,11.1-4.9,16.6,0c3.1,2.8,6.3,5.6,9.4,8.4
		C112.4,221,115.9,224.2,119.6,227.4z"/>
	<path class="st0" d="M91,147.2c17.3,0,34.6,0,51.9,0c4.5,0,7,2.7,6.3,6.6c-0.4,2.2-1.7,3.7-3.8,4.2c-1.2,0.3-2.5,0.4-3.7,0.4
		c-33.9,0-67.7,0-101.6,0c-1.2,0-2.5-0.1-3.7-0.4c-2.4-0.6-3.9-2.7-4-5.1c-0.1-2.4,1.5-4.6,3.8-5.3c1.1-0.3,2.3-0.4,3.4-0.4
		C56.9,147.2,74,147.2,91,147.2z"/>
	<path class="st0" d="M91.2,124.9c-17.2,0-34.5,0-51.7,0c-2.4,0-4.6-0.4-6.1-2.7c-1.9-3-0.5-7.1,2.9-8.1c1-0.3,2.1-0.4,3.2-0.4
		c34.3,0,68.6,0,103,0c2.3,0,4.5,0.4,5.9,2.5c2.1,3.1,0.7,7.2-2.8,8.3c-1.1,0.3-2.3,0.4-3.4,0.4C125.2,124.9,108.2,124.9,91.2,124.9
		z"/>
	<path class="st0" d="M66,91.4c-9,0-18,0-27,0c-4.5,0-7.1-3-6.2-6.9c0.6-2.5,2.8-4.2,5.9-4.2c3.7-0.1,7.4,0,11.2,0
		c14.2,0,28.4,0,42.6,0c3.3,0,5.6,1.3,6.4,3.7c1.4,3.8-1.3,7.4-5.7,7.5c-4.7,0.1-9.5,0-14.2,0C74.7,91.4,70.3,91.4,66,91.4z"/>
</g>
</svg>
