<?xml version="1.0" encoding="utf-8"?>
<!-- Generator: Adobe Illustrator 25.2.3, SVG Export Plug-In . SVG Version: 6.00 Build 0)  -->
<svg version="1.1" id="Layer_1" xmlns="http://www.w3.org/2000/svg" x="0px"
     y="0px"
     viewBox="0 0 120 120" style="enable-background:new 0 0 120 120;" xml:space="preserve" fill="#808080">
		<path class="st0" d="M90.5,55.8c0.3,4,1.2,7.7,2.9,11.2c1.3,2.6,3,4.8,5.4,6.6c3.9,2.9,5.4,6.8,4.6,11.6c-0.1,0.3-0.1,0.6-0.1,1
			c1.6,0.2,3.2,0.3,4.7,0.7c6.5,1.6,11.3,7.1,12,13.8c0.1,1.3-0.2,1.8-1.6,2.6c0.9,3.8,0.3,7.4-1.9,10.6c-1.7,2.5-4.1,4.1-7,4.9
			c-3.5,0.9-6.9,0.4-10-1.6c-3.1-2-4.9-4.9-5.7-8.5c-0.3,0.3-0.5,0.6-0.7,0.8c-1.2,1.4-2.7,1.1-3.5-0.5c-0.2-0.5-0.4-1-0.6-1.5
			c-0.2-0.5-0.3-0.9-0.4-1.2c-1.1,0.1-2.1,0.4-3.1,0.4c-10.3,0-20.6,0-30.9,0c-0.5,0-1,0-1.6,0c-0.5,4-2.2,7.2-5.4,9.4
			c-2.3,1.6-4.8,2.3-7.6,2.2c-6.2-0.2-10.1-3.8-12.2-11.5c-0.9-0.2-1.9-0.3-2.7-0.5c-3.7-1.2-5.8-4.8-5.5-9.3c0.2-3,1-5.9,2.2-8.6
			c1.2-2.7,2.6-5.3,4-7.9c0.2-0.4,0.8-0.8,1.2-0.8c9.6,0,19.3,0,28.9,0c0.1,0,0.2,0,0.3,0.1c-1.2,4.2-0.4,7.9,3,11.3
			c0.1-1.6,0.2-2.9,0.3-4.3c0.4-7,0.8-14.1,1.2-21.1c0.1-1.6-0.6-2.3-2.2-2.5c-3.1-0.3-6.1-0.7-9.2-1c-3.5-0.4-5.9-3.6-5.2-7
			c1.8-8.9,3.7-17.8,5.6-26.7c0.8-3.9,4.1-6.3,8-5.9c3.5,0.4,6.1,3.5,6.2,7.4c0,0.5,0.3,1.1,0.6,1.5c3.5,3.8,8,5.9,12.7,7.6
			c2.2,0.8,4.5,1.2,6.8,1.1c3.2-0.1,6.4,0,9.6,0c4.1,0,6.4,2.4,6.4,6.4c0,1.2,0,2.5,0,3.7c-0.1,3-2.6,5.4-5.6,5.5
			C93.2,55.8,91.9,55.8,90.5,55.8z M61.1,43c-0.4,1.7-0.9,3.6-1.3,5.5c-0.3,1.6,0,2.2,1.6,2.8c2.8,1.1,5.6,2.1,8.4,3.1
			c3.5,1.3,4.9,3.3,4.5,7c-0.8,8.1-1.7,16.2-2.6,24.3c-0.2,2.3-0.5,4.6-0.7,7c2.6,0,5,0,7.6,0c0-14.3,0-28.6,0-42.7
			c-3.1-0.9-6.2-1.5-9.1-2.7C66.5,46.2,63.9,44.5,61.1,43z M109.8,101.4c-4,0-7.9,1-11,2.8c-0.8,0.5-1.4,1.1-1.4,2.1
			c0.2,3.6,1.8,6.3,5,7.8c3.3,1.6,6.6,1.1,9.4-1.3c2.7-2.4,3.6-5.4,2.6-8.9c-0.6-2.2-0.9-2.4-3.1-2.5
			C110.8,101.5,110.2,101.4,109.8,101.4z M31.9,106.7c0.3,4.4,4.3,7.8,8.8,7.7c4.3-0.2,8.2-3.8,8.1-7.7
			C43.3,106.7,37.6,106.7,31.9,106.7z" />
  <path class="st0" d="M19.6,61.9c-4.4,0-8.8,0-13.3,0c-3.9,0-6.3-2.4-6.4-6.4c0-6.9,0-13.9,0-20.8c0-3.8,2.5-6.3,6.3-6.3
			c8.9,0,17.8,0,26.7,0c3.9,0,6.3,2.4,6.4,6.4c0,6.9,0,13.9,0,20.8c0,3.8-2.5,6.3-6.3,6.3C28.6,61.9,24.1,61.9,19.6,61.9z" />
  <path class="st0" d="M57,75.7c-0.5,0-1,0-1.4,0c-9.8,0-19.6,0-29.4,0c-0.9,0-1.5-0.3-2.1-1c-1.5-2-2.4-4.3-2.5-6.8
			c-0.1-1.5,0.7-2.3,2.2-2.3c10.3,0,20.6,0,30.8,0c1.3,0,2.2,0.6,2.2,1.8C57,70.1,57,72.8,57,75.7z" />
  <path class="st0"
        d="M63,0.9c5.4,0,9.8,4.5,9.8,9.9c0,5.4-4.5,9.8-10,9.7c-5.4-0.1-9.7-4.5-9.7-9.9C53.1,5.3,57.6,0.9,63,0.9z" />
</svg>
