<?xml version="1.0" encoding="utf-8"?>
<!-- Generator: Adobe Illustrator 25.2.3, SVG Export Plug-In . SVG Version: 6.00 Build 0)  -->
<svg version="1.1" id="Layer_1" xmlns="http://www.w3.org/2000/svg" xmlns:xlink="http://www.w3.org/1999/xlink" x="0px" y="0px"
	 viewBox="0 0 829.4 236.2" style="enable-background:new 0 0 829.4 236.2;" xml:space="preserve">
<style type="text/css">
	.st0{fill:#FFFFFF;}
	.st1{fill:#F7931E;}
</style>
<g>
	<g>
		<path class="st0" d="M344.4,30.2c0-4.5,3.1-8.1,8.1-8.1h26.6c9.1-0.4,9.2,14.7,0,14.3H360v15.1h16.1c9.9-0.5,9.9,14.6,0,14.3H360
			v22.6c0,5.1-3.2,8.1-7.8,8.1s-7.8-3-7.8-8.1V30.2z"/>
		<path class="st0" d="M401.9,29.5c1.8-5,6-8.6,11.1-8.6c5.3,0,9.3,3.3,11.1,8.6l20.3,56.4c0.5,1.5,0.8,2.7,0.8,3.8
			c0,4-3.3,6.8-7.2,6.8c-3.8,0-6.4-1.8-7.6-5.4l-3.1-9.8h-28.8l-3.1,9.6c-1.1,3.6-3.6,5.5-7.5,5.5c-4.1,0-7.7-3.1-7.7-7.3
			c0-1.1,0.2-2.3,0.7-3.4L401.9,29.5z M412.9,37.1L403,67.2h19.7l-9.6-30.1H412.9z"/>
		<path class="st0" d="M481.3,21.7c2.9,0.5,5.7,1.6,8.4,3.3c2.7,1.7,4,3.7,4,6.2c0,4.1-2.8,7.7-7,7.7c-1.2,0-3.3-0.5-6.2-1.6
			c-2.8-1-5.4-1.6-7.6-1.6c-4.7,0-8.5,2.6-8.5,6.7c0,3.8,5.5,6,12.2,7.8c3.4,0.9,6.7,2.1,10.2,3.5c6.7,2.8,12.2,9.3,12.2,19.3
			c0,7.2-2.6,13-7.8,17.4c-5.1,4.5-11.4,6.6-18.8,6.6c-4.9,0-9.8-0.5-15.6-2.1c-5.7-1.6-9.6-5-9.6-9.5c0-4.1,2.8-7.4,7-7.4
			c1.5,0,4.1,0.7,8,2.1c3.8,1.3,7.1,2,9.4,2c6.6,0,10.6-3.6,10.6-8.9c0-4.5-5.5-7-12.2-8.6c-3.4-0.9-6.7-2-10.2-3.2
			c-6.7-2.5-12.2-8.3-12.2-17.1c0-7.1,2.5-12.8,7.5-17c5.1-4.4,11.1-6.5,18.3-6.5C475.8,20.9,478.5,21.2,481.3,21.7z"/>
		<path class="st0" d="M518.3,36.5H507c-9.6,0.4-9-14.7,0-14.3h38.2c9-0.4,9.6,14.7,0,14.3h-11.3v52.1c0,5.1-3.2,8.1-7.8,8.1
			c-4.6,0-7.8-3-7.8-8.1V36.5z"/>
		<path class="st0" d="M625.4,67.4l4-4.7c3-3.4,4.9-4.8,7.9-4.8s5.7,2.7,5.7,6.5c0,2.3-1.9,5.6-5.7,9.9l-2.6,2.8l7.1,8
			c1.6,1.8,2.3,3.4,2.3,5.2c0,3.6-3.4,7-7.3,7c-2.2,0-3.9-0.8-5.5-2.4l-7.2-7.5c-7.5,6.5-15,9.9-22.8,9.9c-7.3,0-13.3-2-18.2-5.9
			c-4.9-4-7.3-9.5-7.3-16.5c0-9.6,6.4-17.4,15.7-22.5c-4.6-4.6-6.8-9.2-6.8-14c0-5.5,2.2-9.9,6.4-12.9c4.4-3,9.4-4.6,15.4-4.6
			c9.3-0.3,21.2,5.6,21.2,16.3c0,7.8-5.7,14.3-13.2,18.2L625.4,67.4z M599.7,60.8c-5.9,3.8-8.9,8-8.9,12.6c0,6.3,4.3,10.2,10.8,10.2
			c4.6,0,8.9-2,13.2-6L599.7,60.8z M606.5,32.7c-2.9,0-6.2,2.3-6.2,5.2c0,3,1.2,4.8,5.5,8.9c5.1-2.5,7.6-5.2,7.6-8.1
			C613.3,34.6,609.9,32.7,606.5,32.7z"/>
		<path class="st0" d="M344.4,131.1c0-4.5,3.1-8.1,8.1-8.1h26.6c9.1-0.4,9.2,14.7,0,14.3H360v15.1h16.1c9.9-0.5,9.9,14.6,0,14.3H360
			v22.6c0,5.1-3.2,8.1-7.8,8.1s-7.8-3-7.8-8.1V131.1z"/>
		<path class="st0" d="M397.5,187.2c-6.6-7.4-10-16.4-10-27.3c0-10.9,3.3-20,10-27.3c6.7-7.3,15.3-10.9,25.7-10.9
			c10.3,0,18.8,3.7,25.5,11.1c6.7,7.4,10.2,16.4,10.2,27.1c0,10.9-3.3,19.9-10,27.3c-6.6,7.3-15.2,10.9-25.7,10.9
			C412.8,198.1,404.3,194.5,397.5,187.2z M437.6,143c-3.4-4.7-8.2-7-14.3-7c-6.1,0-11,2.3-14.4,7c-3.4,4.6-5.1,10.2-5.1,16.9
			c0,6.7,1.7,12.4,5,17c3.4,4.6,8.2,6.8,14.5,6.8c6.3,0,11.1-2.3,14.4-6.8c3.4-4.6,5.1-10.3,5.1-17C442.8,153.2,441,147.6,437.6,143
			z"/>
		<path class="st0" d="M472.4,187.2c-6.6-7.4-10-16.4-10-27.3c0-10.9,3.3-20,10-27.3c6.7-7.3,15.3-10.9,25.7-10.9
			c10.3,0,18.8,3.7,25.5,11.1c6.7,7.4,10.2,16.4,10.2,27.1c0,10.9-3.3,19.9-10,27.3c-6.6,7.3-15.2,10.9-25.7,10.9
			C487.7,198.1,479.2,194.5,472.4,187.2z M512.5,143c-3.4-4.7-8.2-7-14.3-7c-6.1,0-11,2.3-14.4,7c-3.4,4.6-5.1,10.2-5.1,16.9
			c0,6.7,1.7,12.4,5,17c3.4,4.6,8.2,6.8,14.5,6.8c6.3,0,11.1-2.3,14.4-6.8c3.4-4.6,5.1-10.3,5.1-17
			C517.7,153.2,515.9,147.6,512.5,143z"/>
		<path class="st0" d="M540.3,131c0-4.7,3.3-8,8-8h17.2c11.5,0,20.4,3.4,26.9,10.3c6.4,6.8,9.6,16.1,9.6,27.7
			c0,10.9-3.2,19.6-9.8,26.1c-6.4,6.5-15,9.8-25.7,9.8h-18.1c-4.1,0-8.2-2.4-8.2-7.8V131z M555.8,137.3v45.2h10.5
			c12.9,0,19.5-9.1,19.5-22.3c0-14-6.8-22.9-20.5-22.9H555.8z"/>
		<path class="st0" d="M609.5,130.5c0-5.1,3.2-8.1,7.8-8.1s7.8,3,7.8,8.1v58.9c0,5.1-3.2,8.1-7.8,8.1s-7.8-3-7.8-8.1V130.5z"/>
		<path class="st0" d="M641.4,187.2c-6.6-7.4-10-16.4-10-27.3c0-10.9,3.3-20,10-27.3c6.7-7.3,15.3-10.9,25.7-10.9
			c10.3,0,18.8,3.7,25.5,11.1c6.7,7.4,10.2,16.4,10.2,27.1c0,10.9-3.3,19.9-10,27.3c-6.6,7.3-15.2,10.9-25.7,10.9
			C656.7,198.1,648.1,194.5,641.4,187.2z M681.4,143c-3.4-4.7-8.2-7-14.3-7c-6.1,0-11,2.3-14.4,7c-3.4,4.6-5.1,10.2-5.1,16.9
			c0,6.7,1.7,12.4,5,17c3.4,4.6,8.2,6.8,14.5,6.8c6.3,0,11.1-2.3,14.4-6.8c3.4-4.6,5.1-10.3,5.1-17
			C686.6,153.2,684.9,147.6,681.4,143z"/>
		<path class="st0" d="M708.6,130.5c0-5.1,3.2-8.1,7.8-8.1c4.6,0,7.8,3,7.8,8.1v36.2c0,4.9,1.5,9,4.4,12.2c2.9,3.2,6.7,4.9,11.6,4.9
			c4.7,0,8.4-1.7,11.4-5c3-3.4,4.5-7.5,4.5-12.1v-36.2c0-5.1,3.2-8.1,7.8-8.1s7.8,3,7.8,8.1v37c0,8.6-3.1,15.9-9.2,21.8
			s-13.6,8.8-22.2,8.8c-8.8,0-16.3-2.9-22.4-8.7c-6.1-5.9-9.1-13.2-9.1-21.9V130.5z"/>
		<path class="st0" d="M811.5,122.6c2.9,0.5,5.7,1.6,8.4,3.3c2.7,1.7,4,3.7,4,6.2c0,4.1-2.8,7.7-7,7.7c-1.2,0-3.3-0.5-6.2-1.6
			c-2.8-1-5.4-1.6-7.6-1.6c-4.7,0-8.5,2.6-8.5,6.7c0,3.8,5.5,6,12.2,7.8c3.4,0.9,6.7,2.1,10.2,3.5c6.7,2.8,12.2,9.3,12.2,19.3
			c0,7.2-2.6,13-7.8,17.4c-5.1,4.5-11.4,6.6-18.8,6.6c-4.9,0-9.8-0.5-15.6-2.1c-5.7-1.6-9.6-5-9.6-9.5c0-4.2,2.8-7.4,7-7.4
			c1.5,0,4.1,0.7,8,2.1c3.8,1.3,7.1,2,9.4,2c6.6,0,10.6-3.6,10.6-8.9c0-4.5-5.5-7-12.2-8.6c-3.4-0.9-6.7-2-10.2-3.2
			c-6.7-2.5-12.2-8.3-12.2-17.1c0-7.1,2.5-12.8,7.5-17c5.1-4.4,11.1-6.5,18.3-6.5C806,121.8,808.7,122.1,811.5,122.6z"/>
	</g>
	<g>
		<path class="st1" d="M111.3,103.4l179.7-31c3.8-0.7,6.3-4.3,5.7-8.1c-7.3-42.1-47.4-70.4-89.5-63.1l-40.8,7.1
			C146,11.7,128.2,23,116.3,39.9s-16.5,37.4-13,57.8c0.6,3.4,3.5,5.8,6.9,5.8C110.5,103.5,110.9,103.4,111.3,103.4z M127.7,47.9
			c9.8-13.9,24.4-23.1,41.1-26l40.8-7.1c16.7-2.9,33.5,0.9,47.4,10.7c11.9,8.4,20.4,20.4,24.4,34.3L116.2,88.4
			C115.3,74,119.2,59.8,127.7,47.9z"/>
		<path class="st1" d="M295.9,168.6H113.6c-3.9,0-7,3.1-7,7c0,18.4,12.4,34,29.2,38.9c1,12.2,11.1,21.8,23.6,21.8
			c11.8,0,21.7-8.8,23.4-20.1h44c1.7,11.4,11.5,20.1,23.4,20.1c12.4,0,22.6-9.6,23.6-21.8c16.9-4.9,29.2-20.5,29.2-38.9
			C302.9,171.7,299.7,168.6,295.9,168.6z M159.4,222.3c-5.3,0-9.7-4.4-9.7-9.7c0-5.3,4.4-9.7,9.7-9.7c5.3,0,9.7,4.4,9.7,9.7
			C169.1,217.9,164.7,222.3,159.4,222.3z M240.4,212.6c0-5.3,4.4-9.7,9.7-9.7c5.3,0,9.7,4.4,9.7,9.7c0,5.3-4.4,9.7-9.7,9.7
			C244.8,222.3,240.4,217.9,240.4,212.6z M270.6,200.8c-4.1-7.1-11.7-11.9-20.5-11.9c-9.3,0-17.3,5.4-21.2,13.2h-48.4
			c-3.9-7.8-11.9-13.2-21.2-13.2c-8.8,0-16.4,4.8-20.5,11.9c-8.5-2.8-15.1-9.7-17.4-18.3H288C285.6,191.1,279,198,270.6,200.8z"/>
		<path class="st1" d="M292.7,82.5c-9.3,1.6-13.8,5.2-17.4,8.1c-3.1,2.5-5.4,4.3-11.1,5.3c-5.7,1-8.4,0-12.2-1.3
			c-4.4-1.5-9.9-3.4-19.2-1.8c-9.3,1.6-13.8,5.2-17.4,8.1c-3.1,2.5-5.4,4.3-11.1,5.3c-5.7,1-8.4,0-12.2-1.3
			c-4.4-1.5-9.9-3.4-19.2-1.8c-9.3,1.6-13.8,5.2-17.4,8.1c-3.1,2.5-5.4,4.3-11.1,5.3c-5.7,1-8.4,0-12.2-1.3
			c-4.4-1.5-9.9-3.4-19.2-1.8c-3.8,0.7-6.3,4.3-5.7,8.1c0.7,3.8,4.3,6.3,8.1,5.7c5.7-1,8.4,0,12.2,1.3c3.2,1.1,7,2.4,12.5,2.4
			c2,0,4.2-0.2,6.7-0.6c9.3-1.6,13.8-5.2,17.4-8.1c3.1-2.5,5.4-4.3,11.1-5.3c5.7-1,8.4,0,12.2,1.3c4.4,1.5,9.9,3.4,19.2,1.8
			c9.3-1.6,13.8-5.2,17.4-8.1c3.1-2.5,5.4-4.3,11.1-5.3c5.7-1,8.4,0,12.2,1.3c4.4,1.5,9.9,3.4,19.2,1.8c9.3-1.6,13.8-5.2,17.4-8.1
			c3.1-2.5,5.4-4.3,11.1-5.3c3.8-0.7,6.3-4.3,5.7-8.1C300.1,84.4,296.5,81.8,292.7,82.5z"/>
		<path class="st1" d="M88.8,114.7H7c-3.9,0-7,3.1-7,7c0,3.9,3.1,7,7,7h81.9c3.9,0,7-3.1,7-7C95.8,117.9,92.7,114.7,88.8,114.7z"/>
		<path class="st1" d="M295.9,143.1H113.6c-3.9,0-7,3.1-7,7c0,3.9,3.1,7,7,7h182.3c3.9,0,7-3.1,7-7
			C302.9,146.2,299.7,143.1,295.9,143.1z"/>
		<path class="st1" d="M88.8,143.1H31.2c-3.9,0-7,3.1-7,7c0,3.9,3.1,7,7,7h57.7c3.9,0,7-3.1,7-7C95.8,146.2,92.7,143.1,88.8,143.1z"
			/>
		<path class="st1" d="M88.8,168.6H64.8c-3.9,0-7,3.1-7,7s3.1,7,7,7h24.1c3.9,0,7-3.1,7-7S92.7,168.6,88.8,168.6z"/>
	</g>
</g>
</svg>
