<?xml version="1.0" encoding="utf-8"?>
<!-- Generator: Adobe Illustrator 27.5.0, SVG Export Plug-In . SVG Version: 6.00 Build 0)  -->
<svg version="1.1" id="Layer_1" xmlns="http://www.w3.org/2000/svg" xmlns:xlink="http://www.w3.org/1999/xlink" x="0px" y="0px"
	 viewBox="0 0 237.7 238.6" style="enable-background:new 0 0 237.7 238.6;" xml:space="preserve" fill="#FFFFFF">
<g>
	<path class="st0" d="M74.1,0c37.3,0,74.6,0,111.8,0c1.3,1,2.8,1.8,4,3c14.9,14.8,29.8,29.8,44.7,44.6c2.1,2.1,3.1,4.5,3.1,7.5
		c0,53.8,0,107.6,0,161.5c0,13.1-9,22-22.1,22c-50.6,0-101.1,0-151.7,0c-3.6,0-7.3-0.3-10.9-0.8c-26.3-4.3-46.8-24.2-51.9-50.4
		c-5-25.6,6.9-52,29.5-65.6c7.7-4.7,16.1-7.5,25.3-8.6c0-1,0-1.9,0-2.8c0-29.5,0-59,0-88.5c0-7.7,3-14,9.4-18.2
		C68,1.9,71.2,1.2,74.1,0z M223.7,60.6c-1.1,0-2,0-2.8,0c-11.9,0-23.8,0-35.6,0c-5.4,0-8.1-2.7-8.1-8.2c0-12,0-23.9,0-35.9
		c0-0.8,0-1.6,0-2.6c-1,0-1.7,0-2.4,0c-32.2,0-64.4,0-96.7,0c-5.4,0-8.1,2.7-8.1,8.2c0,29.5,0,59,0,88.5c0,0.8,0,1.6,0,2.4
		c12.8,2,21.7,5.6,30.7,12.2c1.1,0.8,2.8,1.4,4.2,1.4c25.9,0.1,51.9,0.1,77.8,0.1c5.2,0,10.4-0.1,15.6,0c3.7,0.1,6.5,2.9,6.8,6.4
		c0.3,3.4-2,6.6-5.5,7.4c-1,0.2-2,0.2-3,0.2c-26.1,0-52.2,0-78.3,0c-0.9,0-1.8,0-3,0c5.7,8.8,9,18,10.3,28c1.2,0,2.1,0,3,0
		c20.5,0,41,0,61.5,0c2.8,0,5.6-0.1,8.4,0c3.5,0.1,6.3,2.9,6.7,6.3c0.3,3.3-1.8,6.4-5.2,7.3c-1,0.3-2.1,0.3-3.2,0.3
		c-22.8,0-45.5,0-68.3,0c-0.9,0-1.8,0-2.9,0c-1.1,8.2-3.4,15.9-7.3,23c-3.9,7.1-9.1,13.3-15.7,18.9c1.4,0,2.3,0,3.1,0
		c36.4,0,72.8,0,109.3,0c6.4,0,8.9-2.4,8.9-8.8c0-50.8,0-101.6,0-152.3C223.7,62.6,223.7,61.7,223.7,60.6z M63.1,126.7
		c-27,0-49,21.9-49,48.8c-0.1,27,21.8,49,48.7,49.1c27,0.1,49.1-21.9,49.1-48.9C111.9,148.8,90,126.8,63.1,126.7z M212.8,46.5
		c-7.2-7.2-14.5-14.5-21.5-21.5c0,6.9,0,14.2,0,21.5C198.7,46.5,205.9,46.5,212.8,46.5z"/>
	<path class="st0" d="M146.6,98.8c-16.8,0-33.7,0-50.5,0c-5.7,0-9.2-5.3-6.7-10c1.4-2.7,3.6-3.9,6.6-3.9c7.5,0,15.1,0,22.6,0
		c26.3,0,52.6,0,78.9,0c5.6,0,9.2,5,7,9.7c-1.4,3-3.9,4.2-7.1,4.2c-15.9,0-31.8,0-47.7,0C148.6,98.8,147.6,98.8,146.6,98.8z"/>
	<path class="st0" d="M69.9,168.7c3.9,0,7.4,0,11,0c4.5,0,7.7,2.9,7.6,7c0,4.1-3.2,6.9-7.7,7c-5.7,0-11.5,0-17.2,0
		c-4.8,0-7.7-2.9-7.7-7.7c0-8.8,0-17.7,0-26.5c0-4.5,2.9-7.7,7-7.7c4.1,0,7,3.1,7,7.6C70,155,69.9,161.7,69.9,168.7z"/>
</g>
</svg>
