<?xml version="1.0" encoding="utf-8"?>
<!-- Generator: Adobe Illustrator 27.5.0, SVG Export Plug-In . SVG Version: 6.00 Build 0)  -->
<svg version="1.1" id="Layer_1" xmlns="http://www.w3.org/2000/svg" xmlns:xlink="http://www.w3.org/1999/xlink" x="0px" y="0px"
	 viewBox="0 0 272.2 384" style="enable-background:new 0 0 272.2 384;" xml:space="preserve" fill="#FFFFFF">
<path d="M256.9,384c-80.5,0-161,0-241.5,0C5.7,380.4,0,374,0,363.1c0.1-83.3,0-166.7,0.1-250c0-12.8,8.1-20.7,21-20.7
	c12.6,0,25.2,0,37.9,0c1.3,0,2.7,0,4.4,0c0-7.4-0.3-14.4,0.1-21.3C64.8,41.3,79,19.6,105.8,6.8c7.1-3.4,15.1-4.6,22.8-6.8
	c5,0,10,0,15,0c3.1,0.7,6.3,1.2,9.4,2c33,8.1,55.5,36.5,55.9,70.5c0.1,6.5,0,12.9,0,19.8c1.7,0,3.1,0,4.4,0c12.9,0,25.7,0,38.6,0
	c7.6,0,13.9,2.9,17.4,9.7c1.9,3.7,2.7,8.3,2.8,12.5c0.2,82.3,0.1,164.7,0.1,247c0,1.5,0,3-0.1,4.5c-0.8,7.9-4.9,13.4-12.2,16.5
	C258.8,383.1,257.8,383.5,256.9,384z M209,121.7c0,9.7,0.1,19.1,0,28.5c-0.1,8.7-6.1,15-14.3,15c-8.3,0.1-14.5-6-14.8-14.7
	c-0.2-7,0-14-0.1-21c0-2.6,0-5.2,0-7.8c-29.3,0-58.1,0-87.2,0c-0.1,1-0.2,1.8-0.2,2.7c0,8.6,0.1,17.3-0.1,25.9
	c-0.2,8.9-6.5,15.1-14.9,14.9c-8.2-0.1-14.1-6.4-14.2-15.2c-0.1-6.6,0-13.2,0-19.9c0-2.8,0-5.6,0-8.4c-11.6,0-22.7,0-33.8,0
	c0,77.8,0,155.3,0,232.9c71.3,0,142.2,0,213.4,0c0-77.7,0-155.2,0-233C231.6,121.7,220.5,121.7,209,121.7z M179.7,92.1
	c0-7.2,0.2-14.1,0-20.9c-0.5-17.7-11.8-33.2-28.6-39.4c-16.6-6.1-35.3-1.4-47.3,11.5C90.6,57.5,92.1,74.8,92.6,92.1
	C121.7,92.1,150.5,92.1,179.7,92.1z"/>
</svg>
