<?xml version="1.0" encoding="utf-8"?>
<!-- Generator: Adobe Illustrator 27.5.0, SVG Export Plug-In . SVG Version: 6.00 Build 0)  -->
<svg version="1.1" id="Layer_1" xmlns="http://www.w3.org/2000/svg" xmlns:xlink="http://www.w3.org/1999/xlink" x="0px" y="0px"
	 viewBox="0 0 295.9 406.4" style="enable-background:new 0 0 295.9 406.4;" xml:space="preserve">
<style type="text/css">
	.st0{fill:#E50000;}
</style>
<g>
	<g>
		<path class="st0" d="M134.7,400.3c0,0-0.1-0.1-0.1-0.1c-34.1-39.7-65.5-81.5-91.6-127c-15.2-26.4-28.5-53.7-36.7-83.3
			c-12.4-44.3-6.6-86.1,19-124.3c24.4-36.2,58.8-58,102.3-64c42.5-5.9,80.9,4.9,114.1,32c29.3,23.9,46.7,54.9,52.6,92.4
			c4.6,29.2-0.9,56.9-11,84c-13.5,36.4-32.8,69.7-54.2,101.8c-20.6,30.9-43.3,60.3-67.6,88.4c0,0.1-0.1,0.1-0.1,0.2
			C154.1,408.4,141.9,408.4,134.7,400.3z M148,222.5c40.9,0,74.3-33.4,74.4-74.4c0.1-41-33.2-74.4-74.2-74.6
			c-41-0.2-74.7,33.5-74.6,74.6C73.7,189.1,107.1,222.5,148,222.5z"/>
	</g>
</g>
</svg>
