<?xml version="1.0" encoding="utf-8"?>
<!-- Generator: Adobe Illustrator 25.2.3, SVG Export Plug-In . SVG Version: 6.00 Build 0)  -->
<svg version="1.1" id="Layer_1" xmlns="http://www.w3.org/2000/svg" xmlns:xlink="http://www.w3.org/1999/xlink" x="0px" y="0px"
	 viewBox="0 0 120 120" style="enable-background:new 0 0 120 120;" xml:space="preserve">
<style type="text/css">
	.st0{fill:#F7931E;}
</style>
<g>
	<path class="st0" d="M18.1,113.9c0.5-3.4,1.1-6.7,1.6-10.1c1.3-7.6,2.5-15.2,3.8-22.7c0.2-1,0-1.8-0.7-2.7C15.9,69.7,8.9,61,2,52.3
		C-1.4,48,0.6,43,5.9,42.1c10.2-1.7,20.4-3.4,30.6-5.1c1.1-0.2,1.8-0.6,2.3-1.7C44,24.8,49.2,14.3,54.4,3.8c1.6-3.2,4.7-4.6,7.8-3.3
		c1.6,0.7,2.7,1.9,3.5,3.5C70.8,14.3,76,24.7,81.1,35.1c0.6,1.2,1.3,1.7,2.6,1.9c10.2,1.6,20.3,3.3,30.4,5c5.4,0.9,7.3,5.9,3.9,10.2
		C111,61,104.1,69.7,97.1,78.4c-0.7,0.8-0.9,1.6-0.7,2.5c1.4,8.1,2.7,16.3,4.1,24.4c0.4,2.4,0.9,4.9,1.2,7.3
		c0.4,2.5-0.2,4.7-2.4,6.3c-2.2,1.5-4.5,1.3-6.7,0.1c-10.4-5.4-20.8-10.7-31.2-16.1c-1-0.5-1.7-0.5-2.7,0
		c-10.4,5.4-20.9,10.8-31.3,16.1c-3.2,1.6-6.3,0.9-8.2-1.8C18.5,116.3,18.2,115.1,18.1,113.9z"/>
</g>
</svg>
