<?xml version="1.0" encoding="utf-8"?>
<!-- Generator: Adobe Illustrator 25.2.3, SVG Export Plug-In . SVG Version: 6.00 Build 0)  -->
<svg version="1.1" id="Layer_1" xmlns="http://www.w3.org/2000/svg" xmlns:xlink="http://www.w3.org/1999/xlink" x="0px" y="0px"
	 viewBox="0 0 120 120" style="enable-background:new 0 0 120 120;" xml:space="preserve">
<style type="text/css">
	.st0{fill:#808080;}
</style>
<g>
	<path class="st0" d="M0,60C0.1,26.8,27-0.1,60.2,0c32.9,0.1,60,27.2,59.8,60.1c-0.1,33.4-27.1,60.1-60.7,60
		C26.7,119.9-0.1,92.7,0,60z M65.4,42C65.4,42,65.4,42,65.4,42c0-4.9,0-9.8,0-14.7c0-3.2-2.3-5.4-5.4-5.5c-3.1,0-5.4,2.3-5.4,5.4
		c0,10.9,0,21.8,0,32.7c0,1.5,0.5,2.8,1.5,3.8c5.5,5.5,11,11,16.5,16.5c1.5,1.5,3.3,1.8,5.3,1.2c4-1.2,5.2-6.1,2.1-9.2
		c-4.5-4.6-9.1-9.2-13.7-13.7c-0.7-0.6-1-1.3-0.9-2.2C65.5,51.6,65.4,46.8,65.4,42z"/>
</g>
</svg>
